<svg xmlns="http://www.w3.org/2000/svg" xmlns:xlink="http://www.w3.org/1999/xlink" width="500" zoomAndPan="magnify" viewBox="0 0 375 374.999991" height="500" preserveAspectRatio="xMidYMid meet" version="1.0"><defs><g/><clipPath id="id1"><path d="M 76 215 L 180 215 L 180 226.460938 L 76 226.460938 Z M 76 215 " clip-rule="nonzero"/></clipPath><clipPath id="id2"><path d="M 76 83.210938 L 195 83.210938 L 195 218 L 76 218 Z M 76 83.210938 " clip-rule="nonzero"/></clipPath></defs><rect x="-37.5" width="450" fill="rgb(100%, 100%, 100%)" y="-37.499999" height="449.999989" fill-opacity="1"/><rect x="-37.5" width="450" fill="rgb(100%, 100%, 100%)" y="-37.499999" height="449.999989" fill-opacity="1"/><rect x="-37.5" width="450" fill="rgb(100%, 100%, 100%)" y="-37.499999" height="449.999989" fill-opacity="1"/><rect x="-37.5" width="450" fill="rgb(100%, 100%, 100%)" y="-37.499999" height="449.999989" fill-opacity="1"/><g clip-path="url(#id1)"><path fill="rgb(57.649231%, 59.999084%, 96.078491%)" d="M 87.078125 226.480469 C 84.832031 226.480469 82.835938 226.082031 81.097656 225.277344 C 77.152344 223.457031 76.101562 220.214844 76.058594 220.078125 C 75.902344 219.578125 76.183594 219.039062 76.6875 218.882812 C 77.1875 218.726562 77.722656 219.003906 77.882812 219.503906 C 77.925781 219.628906 78.78125 222.125 81.949219 223.566406 C 85.917969 225.367188 91.847656 224.691406 99.089844 221.605469 C 118.488281 213.34375 124.785156 214.199219 130.847656 219.046875 C 136.082031 223.230469 138.128906 223.261719 148.496094 221.542969 C 149.75 221.335938 151.027344 221.113281 152.300781 220.890625 C 161.980469 219.214844 168 218.292969 169.722656 220.394531 C 170.09375 220.84375 170.433594 221.632812 169.972656 222.832031 C 169.808594 223.253906 169.792969 223.46875 169.796875 223.558594 C 170.476562 223.84375 173.25 222.972656 174.753906 222.5 C 176.027344 222.097656 177.226562 221.722656 178.207031 221.546875 C 178.726562 221.449219 179.226562 221.796875 179.320312 222.316406 C 179.414062 222.835938 179.066406 223.332031 178.546875 223.425781 C 177.683594 223.582031 176.539062 223.941406 175.328125 224.320312 C 172.238281 225.292969 169.566406 226.132812 168.371094 224.859375 C 167.792969 224.242188 167.730469 223.324219 168.1875 222.140625 C 168.234375 222.015625 168.335938 221.71875 168.246094 221.605469 C 167.140625 220.257812 158.40625 221.773438 152.628906 222.777344 C 151.351562 222.996094 150.070312 223.21875 148.808594 223.425781 C 138.605469 225.121094 135.6875 225.363281 129.65625 220.542969 C 124.195312 216.175781 118.34375 215.484375 99.839844 223.363281 C 94.964844 225.441406 90.699219 226.480469 87.078125 226.480469 " fill-opacity="1" fill-rule="nonzero"/></g><g clip-path="url(#id2)"><path fill="rgb(57.649231%, 59.999084%, 96.078491%)" d="M 189.722656 97.882812 L 188.921875 99.851562 L 182.488281 98.921875 C 182.070312 98.859375 181.664062 99.078125 181.484375 99.460938 C 181.308594 99.839844 181.398438 100.292969 181.710938 100.578125 L 185.03125 103.5625 C 182.039062 106.1875 171.84375 115.167969 169.457031 117.570312 L 167.03125 120.003906 L 158.910156 118.957031 C 158.46875 118.902344 158.039062 119.164062 157.886719 119.582031 C 157.738281 120.003906 157.898438 120.476562 158.28125 120.714844 L 162.058594 123.089844 C 159.152344 126.195312 149.328125 136.726562 147.558594 138.933594 C 145.871094 141.046875 142.796875 144.75 141.839844 145.902344 L 132.421875 145.773438 L 132.40625 145.773438 C 131.960938 145.773438 131.570312 146.089844 131.472656 146.527344 C 131.378906 146.96875 131.601562 147.417969 132.023438 147.601562 L 137.171875 149.894531 C 135.261719 153.433594 127.894531 166.515625 120.421875 172.421875 C 114.90625 176.785156 107.070312 178.308594 102.1875 178.84375 C 103.796875 176.4375 105.578125 173.867188 107.546875 171.144531 C 134.0625 134.46875 169.363281 102.875 169.714844 102.5625 C 170.089844 102.226562 170.140625 101.664062 169.839844 101.265625 C 169.535156 100.867188 168.976562 100.769531 168.554688 101.046875 C 168.210938 101.273438 134.523438 123.707031 97.378906 173.109375 C 97.066406 169.84375 97.066406 165.816406 98.121094 162.078125 C 99.941406 155.613281 105.996094 145.808594 108.605469 141.753906 L 109.886719 147.257812 C 109.984375 147.691406 110.375 148 110.816406 148 L 110.835938 148 C 111.289062 147.988281 111.675781 147.664062 111.753906 147.222656 L 113.632812 137.304688 C 115.308594 135.363281 128.992188 119.511719 132.457031 115.90625 C 135.015625 113.238281 138.667969 109.660156 140.667969 107.714844 L 141.074219 112.738281 C 141.109375 113.1875 141.453125 113.550781 141.898438 113.609375 C 142.34375 113.671875 142.765625 113.410156 142.921875 112.988281 L 146.878906 102.101562 C 148.992188 100.632812 164.171875 90.195312 173.566406 86.273438 C 175.273438 88.148438 175.648438 90.761719 175.652344 90.789062 C 175.71875 91.300781 176.183594 91.667969 176.699219 91.613281 C 177.210938 91.5625 177.589844 91.113281 177.554688 90.601562 C 177.484375 89.546875 177.414062 86.765625 177.789062 85.210938 C 178.5 85.15625 179.246094 85.128906 180.003906 85.128906 C 185.484375 85.128906 190.78125 86.546875 192.777344 87.144531 C 192.191406 89.472656 190.570312 95.792969 189.722656 97.882812 Z M 99.746094 179.050781 C 99.304688 179.726562 98.878906 180.382812 98.464844 181.03125 C 97.558594 182.433594 96.71875 183.773438 95.9375 185.058594 L 92.855469 182.722656 C 93.964844 181.046875 95 179.539062 95.886719 178.324219 C 95.976562 178.207031 96.0625 178.085938 96.152344 177.964844 C 96.675781 177.25 97.203125 176.542969 97.726562 175.839844 C 119.894531 146.058594 140.921875 125.941406 154.441406 114.449219 C 141.597656 127.164062 122.171875 147.652344 105.996094 170.023438 C 103.664062 173.257812 101.589844 176.265625 99.746094 179.050781 Z M 85.660156 206.566406 C 82.742188 208.765625 81.011719 210.785156 79.015625 213.109375 C 78.699219 213.472656 78.382812 213.84375 78.050781 214.222656 C 78.195312 210.875 78.339844 207.9375 79.640625 204.160156 C 80.105469 203.375 83.800781 197.09375 87.839844 190.59375 L 91.414062 192.972656 C 87.234375 200.863281 85.96875 205.289062 85.660156 206.566406 Z M 194.234375 85.601562 C 193.949219 85.503906 187.25 83.21875 180.003906 83.21875 C 178.957031 83.21875 177.941406 83.269531 176.980469 83.363281 C 176.628906 83.398438 176.328125 83.621094 176.191406 83.945312 C 175.96875 84.480469 175.828125 85.1875 175.734375 85.9375 C 175.375 85.414062 174.945312 84.902344 174.4375 84.4375 C 174.167969 84.195312 173.78125 84.125 173.441406 84.257812 C 163.246094 88.324219 146.253906 100.203125 145.535156 100.707031 C 145.375 100.820312 145.25 100.980469 145.183594 101.164062 L 142.625 108.210938 L 142.410156 105.539062 C 142.382812 105.171875 142.140625 104.855469 141.796875 104.722656 C 141.453125 104.59375 141.0625 104.671875 140.796875 104.929688 C 140.738281 104.984375 134.78125 110.726562 131.074219 114.582031 C 127.367188 118.441406 112.644531 135.523438 112.015625 136.25 C 111.90625 136.378906 111.832031 136.535156 111.800781 136.695312 L 110.722656 142.410156 L 109.960938 139.144531 C 109.875 138.777344 109.578125 138.488281 109.203125 138.421875 C 108.828125 138.351562 108.453125 138.511719 108.238281 138.828125 C 107.851562 139.398438 98.703125 152.976562 96.28125 161.558594 C 94.898438 166.449219 95.175781 171.664062 95.703125 175.355469 C 95.25 175.960938 94.796875 176.574219 94.34375 177.195312 C 88.871094 184.660156 78.050781 203.089844 77.945312 203.273438 C 77.914062 203.328125 77.886719 203.386719 77.867188 203.441406 C 76.417969 207.601562 76.289062 210.722656 76.132812 214.332031 C 76.101562 215.125 76.066406 215.945312 76.019531 216.808594 C 75.992188 217.207031 76.226562 217.582031 76.59375 217.742188 C 76.71875 217.792969 76.847656 217.820312 76.972656 217.820312 C 77.230469 217.820312 77.484375 217.714844 77.667969 217.515625 C 78.722656 216.382812 79.609375 215.351562 80.464844 214.351562 C 82.453125 212.042969 84.164062 210.046875 87.085938 207.890625 C 87.277344 207.746094 87.414062 207.535156 87.457031 207.296875 C 87.476562 207.203125 89.234375 198.6875 100.828125 180.902344 C 105.710938 180.523438 115.035156 179.121094 121.605469 173.925781 C 130.578125 166.832031 138.996094 150.566406 139.347656 149.875 C 139.46875 149.640625 139.488281 149.367188 139.398438 149.121094 C 139.308594 148.875 139.125 148.671875 138.886719 148.566406 L 137.050781 147.746094 L 142.269531 147.820312 C 142.566406 147.828125 142.832031 147.695312 143.015625 147.476562 C 143.058594 147.425781 147.03125 142.652344 149.054688 140.128906 C 151.042969 137.640625 164.113281 123.691406 164.246094 123.550781 C 164.4375 123.339844 164.53125 123.058594 164.496094 122.777344 C 164.460938 122.492188 164.296875 122.242188 164.054688 122.089844 L 162.976562 121.410156 L 167.253906 121.960938 C 167.550781 121.996094 167.84375 121.898438 168.050781 121.683594 L 170.8125 118.917969 C 173.515625 116.203125 186.960938 104.410156 187.097656 104.289062 C 187.300781 104.109375 187.421875 103.851562 187.421875 103.578125 C 187.425781 103.304688 187.308594 103.042969 187.105469 102.859375 L 185.332031 101.261719 L 189.390625 101.851562 C 189.828125 101.910156 190.246094 101.671875 190.414062 101.261719 L 191.492188 98.601562 C 192.589844 95.910156 194.757812 87.105469 194.847656 86.734375 C 194.96875 86.253906 194.703125 85.761719 194.234375 85.601562 " fill-opacity="1" fill-rule="nonzero"/></g><path fill="rgb(57.649231%, 59.999084%, 96.078491%)" d="M 82.847656 206.101562 C 82.847656 206.679688 82.378906 207.152344 81.800781 207.152344 C 81.222656 207.152344 80.753906 206.679688 80.753906 206.101562 C 80.753906 205.523438 81.222656 205.054688 81.800781 205.054688 C 82.378906 205.054688 82.847656 205.523438 82.847656 206.101562 " fill-opacity="1" fill-rule="nonzero"/><path fill="rgb(57.649231%, 59.999084%, 96.078491%)" d="M 81.09375 205.851562 C 81.09375 205.851562 79.707031 208.328125 78.941406 210.628906 C 78.171875 212.929688 77.613281 215.496094 77.613281 215.496094 C 77.613281 215.496094 80.894531 208.421875 81.152344 207.976562 C 81.625 207.152344 82.214844 206.382812 82.214844 206.382812 L 81.09375 205.851562 " fill-opacity="1" fill-rule="nonzero"/><g fill="rgb(0%, 0%, 0%)" fill-opacity="1"><g transform="translate(118.808894, 211.073699)"><g><path d="M 17.140625 -39.546875 C 19.242188 -39.546875 21.296875 -39.238281 23.296875 -38.625 C 25.304688 -38.007812 26.800781 -37.40625 27.78125 -36.8125 L 29.1875 -35.875 L 25.609375 -28.8125 C 25.328125 -29 24.9375 -29.238281 24.4375 -29.53125 C 23.9375 -29.832031 22.992188 -30.234375 21.609375 -30.734375 C 20.222656 -31.242188 18.9375 -31.5 17.75 -31.5 C 16.269531 -31.5 15.128906 -31.179688 14.328125 -30.546875 C 13.535156 -29.921875 13.140625 -29.078125 13.140625 -28.015625 C 13.140625 -27.484375 13.328125 -26.988281 13.703125 -26.53125 C 14.078125 -26.070312 14.71875 -25.582031 15.625 -25.0625 C 16.539062 -24.550781 17.34375 -24.132812 18.03125 -23.8125 C 18.71875 -23.5 19.785156 -23.03125 21.234375 -22.40625 C 23.742188 -21.34375 25.882812 -19.890625 27.65625 -18.046875 C 29.425781 -16.210938 30.3125 -14.132812 30.3125 -11.8125 C 30.3125 -9.582031 29.910156 -7.632812 29.109375 -5.96875 C 28.316406 -4.3125 27.222656 -3.007812 25.828125 -2.0625 C 24.429688 -1.125 22.882812 -0.429688 21.1875 0.015625 C 19.488281 0.472656 17.648438 0.703125 15.671875 0.703125 C 13.984375 0.703125 12.320312 0.53125 10.6875 0.1875 C 9.050781 -0.15625 7.679688 -0.585938 6.578125 -1.109375 C 5.484375 -1.628906 4.5 -2.140625 3.625 -2.640625 C 2.75 -3.140625 2.101562 -3.5625 1.6875 -3.90625 L 1.078125 -4.421875 L 5.515625 -11.859375 C 5.890625 -11.546875 6.40625 -11.144531 7.0625 -10.65625 C 7.71875 -10.175781 8.882812 -9.523438 10.5625 -8.703125 C 12.25 -7.890625 13.734375 -7.484375 15.015625 -7.484375 C 18.753906 -7.484375 20.625 -8.753906 20.625 -11.296875 C 20.625 -11.828125 20.488281 -12.320312 20.21875 -12.78125 C 19.945312 -13.238281 19.472656 -13.691406 18.796875 -14.140625 C 18.128906 -14.597656 17.535156 -14.957031 17.015625 -15.21875 C 16.492188 -15.488281 15.644531 -15.898438 14.46875 -16.453125 C 13.300781 -17.003906 12.429688 -17.421875 11.859375 -17.703125 C 9.503906 -18.859375 7.679688 -20.304688 6.390625 -22.046875 C 5.109375 -23.796875 4.46875 -25.675781 4.46875 -27.6875 C 4.46875 -31.164062 5.753906 -34.007812 8.328125 -36.21875 C 10.898438 -38.4375 13.835938 -39.546875 17.140625 -39.546875 Z M 17.140625 -39.546875 "/></g></g></g><g fill="rgb(0%, 0%, 0%)" fill-opacity="1"><g transform="translate(150.44274, 211.073699)"><g><path d="M 15.671875 -18.03125 C 14.109375 -18.03125 12.757812 -17.445312 11.625 -16.28125 C 10.5 -15.125 9.9375 -13.726562 9.9375 -12.09375 C 9.9375 -10.4375 10.5 -9.023438 11.625 -7.859375 C 12.757812 -6.703125 14.109375 -6.125 15.671875 -6.125 C 16.429688 -6.125 17.144531 -6.21875 17.8125 -6.40625 C 18.488281 -6.59375 18.984375 -6.78125 19.296875 -6.96875 L 19.71875 -7.25 L 22.546875 -1.453125 C 22.328125 -1.296875 22.019531 -1.097656 21.625 -0.859375 C 21.238281 -0.628906 20.347656 -0.3125 18.953125 0.09375 C 17.554688 0.5 16.054688 0.703125 14.453125 0.703125 C 10.910156 0.703125 7.796875 -0.539062 5.109375 -3.03125 C 2.421875 -5.53125 1.078125 -8.519531 1.078125 -12 C 1.078125 -15.519531 2.421875 -18.539062 5.109375 -21.0625 C 7.796875 -23.59375 10.910156 -24.859375 14.453125 -24.859375 C 16.054688 -24.859375 17.53125 -24.671875 18.875 -24.296875 C 20.226562 -23.921875 21.1875 -23.539062 21.75 -23.15625 L 22.546875 -22.59375 L 19.71875 -16.90625 C 18.6875 -17.65625 17.335938 -18.03125 15.671875 -18.03125 Z M 15.671875 -18.03125 "/></g></g></g><g fill="rgb(0%, 0%, 0%)" fill-opacity="1"><g transform="translate(173.55616, 211.073699)"><g><path d="M 2.828125 0 L 2.828125 -24.15625 L 11.15625 -24.15625 L 11.15625 -20.671875 L 11.25 -20.671875 C 11.3125 -20.796875 11.410156 -20.953125 11.546875 -21.140625 C 11.691406 -21.328125 12 -21.65625 12.46875 -22.125 C 12.945312 -22.59375 13.453125 -23.015625 13.984375 -23.390625 C 14.515625 -23.773438 15.203125 -24.113281 16.046875 -24.40625 C 16.898438 -24.707031 17.765625 -24.859375 18.640625 -24.859375 C 19.554688 -24.859375 20.453125 -24.734375 21.328125 -24.484375 C 22.203125 -24.234375 22.84375 -23.984375 23.25 -23.734375 L 23.921875 -23.34375 L 20.4375 -16.28125 C 19.394531 -17.164062 17.945312 -17.609375 16.09375 -17.609375 C 15.09375 -17.609375 14.226562 -17.382812 13.5 -16.9375 C 12.78125 -16.5 12.269531 -15.96875 11.96875 -15.34375 C 11.675781 -14.71875 11.46875 -14.1875 11.34375 -13.75 C 11.21875 -13.3125 11.15625 -12.96875 11.15625 -12.71875 L 11.15625 0 Z M 2.828125 0 "/></g></g></g><g fill="rgb(0%, 0%, 0%)" fill-opacity="1"><g transform="translate(196.999095, 211.073699)"><g><path d="M 3.625 -37.609375 C 4.59375 -38.585938 5.753906 -39.078125 7.109375 -39.078125 C 8.460938 -39.078125 9.625 -38.585938 10.59375 -37.609375 C 11.5625 -36.640625 12.046875 -35.476562 12.046875 -34.125 C 12.046875 -32.78125 11.5625 -31.617188 10.59375 -30.640625 C 9.625 -29.671875 8.460938 -29.1875 7.109375 -29.1875 C 5.753906 -29.1875 4.59375 -29.671875 3.625 -30.640625 C 2.65625 -31.617188 2.171875 -32.78125 2.171875 -34.125 C 2.171875 -35.476562 2.65625 -36.640625 3.625 -37.609375 Z M 2.828125 -24.15625 L 2.828125 0 L 11.15625 0 L 11.15625 -24.15625 Z M 2.828125 -24.15625 "/></g></g></g><g fill="rgb(0%, 0%, 0%)" fill-opacity="1"><g transform="translate(211.2155, 211.073699)"><g><path d="M 27.6875 -21.140625 C 29.945312 -18.660156 31.078125 -15.628906 31.078125 -12.046875 C 31.078125 -8.472656 29.945312 -5.453125 27.6875 -2.984375 C 25.425781 -0.523438 22.550781 0.703125 19.0625 0.703125 C 15.863281 0.703125 13.226562 -0.441406 11.15625 -2.734375 L 11.0625 -2.734375 L 11.0625 0 L 2.828125 0 L 2.828125 -40.484375 L 11.15625 -40.484375 L 11.15625 -21.84375 C 13.226562 -23.851562 15.863281 -24.859375 19.0625 -24.859375 C 22.550781 -24.859375 25.425781 -23.617188 27.6875 -21.140625 Z M 20.65625 -7.984375 C 21.695312 -9.035156 22.21875 -10.390625 22.21875 -12.046875 C 22.21875 -13.710938 21.675781 -15.078125 20.59375 -16.140625 C 19.507812 -17.210938 18.171875 -17.75 16.578125 -17.75 C 15.003906 -17.75 13.675781 -17.210938 12.59375 -16.140625 C 11.507812 -15.078125 10.96875 -13.710938 10.96875 -12.046875 C 10.96875 -10.421875 11.492188 -9.070312 12.546875 -8 C 13.597656 -6.9375 14.941406 -6.40625 16.578125 -6.40625 C 18.265625 -6.40625 19.625 -6.929688 20.65625 -7.984375 Z M 20.65625 -7.984375 "/></g></g></g><g fill="rgb(0%, 0%, 0%)" fill-opacity="1"><g transform="translate(243.367162, 211.073699)"><g><path d="M 5.109375 -2.875 C 2.421875 -5.257812 1.078125 -8.316406 1.078125 -12.046875 C 1.078125 -15.785156 2.472656 -18.851562 5.265625 -21.25 C 8.066406 -23.65625 11.519531 -24.859375 15.625 -24.859375 C 19.675781 -24.859375 23.085938 -23.648438 25.859375 -21.234375 C 28.640625 -18.816406 30.03125 -15.753906 30.03125 -12.046875 C 30.03125 -8.347656 28.671875 -5.296875 25.953125 -2.890625 C 23.242188 -0.492188 19.800781 0.703125 15.625 0.703125 C 11.300781 0.703125 7.796875 -0.488281 5.109375 -2.875 Z M 11.5625 -16.140625 C 10.476562 -15.078125 9.9375 -13.710938 9.9375 -12.046875 C 9.9375 -10.390625 10.453125 -9.035156 11.484375 -7.984375 C 12.523438 -6.929688 13.890625 -6.40625 15.578125 -6.40625 C 17.210938 -6.40625 18.554688 -6.9375 19.609375 -8 C 20.660156 -9.070312 21.1875 -10.421875 21.1875 -12.046875 C 21.1875 -13.710938 20.644531 -15.078125 19.5625 -16.140625 C 18.476562 -17.210938 17.148438 -17.75 15.578125 -17.75 C 13.984375 -17.75 12.644531 -17.210938 11.5625 -16.140625 Z M 11.5625 -16.140625 "/></g></g></g><g fill="rgb(0%, 0%, 0%)" fill-opacity="1"><g transform="translate(274.472281, 211.073699)"><g/></g></g></svg>